<svg id="Layer_1" data-name="Layer 1" xmlns="http://www.w3.org/2000/svg" viewBox="0 0 256 256"><defs><style>.cls-1{fill:#ffc000;}</style></defs><path class="cls-1" d="M128,10a118,118,0,0,1,83.44,201.44A118,118,0,0,1,44.56,44.56,117.22,117.22,0,0,1,128,10m0-10A128,128,0,1,0,256,128,128,128,0,0,0,128,0Z"/><path class="cls-1" d="M36,94a55.76,55.76,0,0,1-12.2-1.34A110.32,110.32,0,0,1,90.37,24.6,55.32,55.32,0,0,1,92,38,56.06,56.06,0,0,1,36,94Z"/><path class="cls-1" d="M101.68,31.53a63.69,63.69,0,0,0-1.74-9.92A110.29,110.29,0,0,1,189,36.46C158.31,37,106.32,32,101.68,31.53Z"/><path class="cls-1" d="M101.18,48.41A66.17,66.17,0,0,0,102,38c0-.39,0-.78,0-1.16,27.5,3.4,87.49,13.27,106.76,16.47a109.56,109.56,0,0,1,23.84,40.51Z"/><path class="cls-1" d="M39,103.93,53.13,208.57A110.09,110.09,0,0,1,21,102.29,65.94,65.94,0,0,0,36,104C37,104,38,104,39,103.93Z"/><path class="cls-1" d="M126.37,238a109.3,109.3,0,0,1-51.26-13.51h0l-30.66-121A65.32,65.32,0,0,0,59.7,99.6Z"/><path class="cls-1" d="M154.5,234.78a109.2,109.2,0,0,1-12.34,2.32L64.3,97.62q2.76-1.31,5.36-2.87Z"/><path class="cls-1" d="M228,173.78a110.33,110.33,0,0,1-56.13,55.1l-97.85-137a66.45,66.45,0,0,0,18.52-20Z"/><path class="cls-1" d="M238,128a110.08,110.08,0,0,1-3.54,27.77L95,67.61a64.67,64.67,0,0,0,5.21-14.18l136.69,58.79A109.47,109.47,0,0,1,238,128Z"/></svg>