<svg id="Layer_1" data-name="Layer 1" xmlns="http://www.w3.org/2000/svg" viewBox="0 0 256 256"><defs><style>.cls-1{fill:#3970e7;}.cls-2{fill:#5bbcf2;}.cls-3{fill:#4592f1;}.cls-4{fill:none;}</style></defs><polygon class="cls-1" points="178.57 98.09 153.3 83.34 178.57 68.56 203.84 83.34 178.57 98.09"/><polygon class="cls-2" points="102.55 111.89 77.14 127.31 77.14 187.44 102.55 173.05 102.55 111.89"/><polygon class="cls-3" points="153.3 83.34 178.57 98.09 178.57 187.44 153.3 173.89 153.3 83.34"/><polygon class="cls-2" points="203.84 83.34 178.57 98.09 178.57 187.44 203.84 173.89 203.84 83.34"/><polygon class="cls-1" points="76.93 68.56 52.16 83.33 127.53 127.31 152.94 111.89 76.93 68.56"/><polygon class="cls-3" points="52.16 83.33 127.53 127.31 127.53 156.11 77.14 127.31 77.14 187.44 52.16 172.83 52.16 83.33"/><polygon class="cls-2" points="152.94 111.89 127.53 127.31 127.53 156.11 152.94 139.8 152.94 111.89"/><rect class="cls-4" width="256" height="256"/></svg>