<svg id="Layer_1" data-name="Layer 1" xmlns="http://www.w3.org/2000/svg" width="36" height="36" viewBox="0 0 36 36"><defs><style>.cls-1{fill:#2775ca;}.cls-2{fill:#fff;}</style></defs><path class="cls-1" d="M18,36A18,18,0,1,0,0,18,18,18,0,0,0,18,36Z"/><path class="cls-2" d="M23,20.85c0-2.63-1.57-3.53-4.72-3.9-2.25-.3-2.71-.9-2.71-1.95s.76-1.73,2.25-1.73a2.22,2.22,0,0,1,2.48,1.58.57.57,0,0,0,.53.37H22a.51.51,0,0,0,.53-.52v-.08a3.74,3.74,0,0,0-3.37-3.07V9.75c0-.3-.23-.52-.6-.6H17.4c-.3,0-.52.22-.6.6v1.73c-2.25.3-3.67,1.79-3.67,3.67,0,2.48,1.5,3.45,4.65,3.83,2.1.37,2.77.82,2.77,2a2.2,2.2,0,0,1-2.47,2c-2,0-2.63-.83-2.86-2a.55.55,0,0,0-.52-.45H13.42a.52.52,0,0,0-.52.53v.08c.3,1.87,1.5,3.22,4,3.6v1.8c0,.29.22.52.59.6H18.6c.3,0,.53-.23.6-.6v-1.8a4.12,4.12,0,0,0,3.75-4Z"/><path class="cls-2" d="M14.17,28.72a11.22,11.22,0,0,1,0-21.07.74.74,0,0,0,.45-.75V5.85a.56.56,0,0,0-.45-.6.49.49,0,0,0-.3.07,13.5,13.5,0,0,0,0,25.73.46.46,0,0,0,.68-.3c.07-.07.07-.15.07-.3V29.4A1,1,0,0,0,14.17,28.72Zm8-23.4a.46.46,0,0,0-.68.3c-.07.08-.07.15-.07.31V7a1,1,0,0,0,.45.75,11.22,11.22,0,0,1,0,21.07.74.74,0,0,0-.45.75V30.6a.56.56,0,0,0,.45.6.49.49,0,0,0,.3-.07,13.56,13.56,0,0,0,0-25.81Z"/></svg>