<svg id="Layer_1" data-name="Layer 1" xmlns="http://www.w3.org/2000/svg" xmlns:xlink="http://www.w3.org/1999/xlink" viewBox="0 0 256 256"><defs><style>.cls-1{fill:url(#linear-gradient);}.cls-2{opacity:0.7;}.cls-3{fill:#032d30;}.cls-4{fill:url(#linear-gradient-2);}.cls-5,.cls-6{opacity:0.5;}.cls-6{fill:#062344;isolation:isolate;}.cls-7{fill:#fff;}.cls-8{fill:none;}</style><linearGradient id="linear-gradient" x1="203.12" y1="237.48" x2="53.03" y2="30.93" gradientTransform="matrix(1, 0, 0, -1, 0, 258)" gradientUnits="userSpaceOnUse"><stop offset="0" stop-color="#1fd8e6"/><stop offset="1" stop-color="#1f9be6"/></linearGradient><linearGradient id="linear-gradient-2" x1="200.85" y1="234.36" x2="55.15" y2="33.85" gradientTransform="matrix(1, 0, 0, -1, 0, 258)" gradientUnits="userSpaceOnUse"><stop offset="0" stop-color="#1f9be6"/><stop offset="1" stop-color="#1fd8e6"/></linearGradient></defs><path class="cls-1" d="M252,123.9a124,124,0,1,1-36.32-87.61A123.8,123.8,0,0,1,252,123.9Z"/><g class="cls-2"><g class="cls-2"><path class="cls-3" d="M128,20.6A111.7,111.7,0,1,1,49.13,53.3,111.68,111.68,0,0,1,128,20.6Zm0-12.39A124,124,0,1,0,215.68,44.5,124.11,124.11,0,0,0,128,8.21Z"/></g></g><path class="cls-4" d="M128,12.39a111.7,111.7,0,1,1-78.87,32.7A111.68,111.68,0,0,1,128,12.39ZM128,0a124,124,0,1,0,87.68,36.29A124.11,124.11,0,0,0,128,0Z"/><g class="cls-5"><path class="cls-6" d="M206.65,125.36c0,1.18.07,2.36.07,3.54A78.8,78.8,0,0,1,72.33,184.51c-1-1-1.94-2-2.92-3H62.57A83.94,83.94,0,0,0,212,128.93c0-1.18,0-2.36-.08-3.54Z"/><path class="cls-6" d="M49.23,128.86a78.78,78.78,0,0,1,134.21-56h7.29a83.95,83.95,0,0,0-146.68,56v.22h5.18Z"/><path class="cls-6" d="M177.6,99.75,156,133.27a10.54,10.54,0,0,1-.95-.94L114.39,93.18c-5.5-5.44-15.23-4.51-19.85,3.87L50.29,163.94h.07c1.46.66,26.38,11.66,38.06-6.12l21.33-33.6a11.22,11.22,0,0,1,1,1.1l39,37.63a6.16,6.16,0,0,0,1.32,1.28l.25.25a12,12,0,0,0,13,2.09,16.22,16.22,0,0,0,7-6.34l2.92-4.49L195,124l20.71-30.36S189.58,81.38,177.6,99.75Z"/></g><path class="cls-7" d="M206.65,120.36c0,1.18.07,2.36.07,3.54A78.8,78.8,0,0,1,72.33,179.51c-1-1-1.94-2-2.92-3H62.57A84,84,0,0,0,212,123.9c0-1.18,0-2.36-.08-3.54Z"/><path class="cls-7" d="M49.23,123.88A78.79,78.79,0,0,1,183.44,68h7.29A83.94,83.94,0,0,0,44.05,123.88v.22h5.18Z"/><path class="cls-7" d="M177.6,94.75,156,128.27a9.47,9.47,0,0,1-.95-1l-40.63-39.1c-5.5-5.44-15.23-4.51-19.85,3.87L50.29,159h.07c1.46.66,26.38,11.66,38.06-6.12l21.33-33.52a11.11,11.11,0,0,1,1,1.09l39,37.64a6.16,6.16,0,0,0,1.32,1.28l.25.25a12,12,0,0,0,13,2.08,16.22,16.22,0,0,0,7-6.34l2.92-4.49L195,119.1l20.71-30.36S189.58,76.43,177.6,94.75Z"/><rect class="cls-8" width="256" height="256"/></svg>