<svg width="24" height="24" viewBox="0 0 24 24" fill="none" xmlns="http://www.w3.org/2000/svg">
<path d="M23.2293 11.6147C23.2293 13.9118 22.5481 16.1574 21.2719 18.0674C19.9957 19.9774 18.1817 21.4661 16.0594 22.3452C13.9371 23.2243 11.6018 23.4543 9.34876 23.0062C7.09574 22.558 5.0262 21.4518 3.40186 19.8275C1.77752 18.2031 0.671332 16.1336 0.223178 13.8806C-0.224977 11.6276 0.00503243 9.29223 0.884119 7.16993C1.76321 5.04762 3.25189 3.23366 5.16191 1.95742C7.07193 0.681188 9.31751 0 11.6147 0C14.6951 0 17.6493 1.22368 19.8275 3.40186C22.0057 5.58003 23.2293 8.53426 23.2293 11.6147V11.6147Z" fill="url(#paint0_linear)"/>
<g style="mix-blend-mode:multiply" opacity="0.7">
<g style="mix-blend-mode:multiply" opacity="0.7">
<path d="M11.6147 1.931C13.6821 1.931 15.7031 2.54407 17.4222 3.69268C19.1412 4.84129 20.481 6.47386 21.2722 8.38393C22.0633 10.294 22.2704 12.3958 21.867 14.4235C21.4637 16.4512 20.4681 18.3138 19.0062 19.7757C17.5443 21.2376 15.6817 22.2332 13.654 22.6365C11.6263 23.0399 9.52448 22.8329 7.6144 22.0417C5.70433 21.2505 4.07177 19.9107 2.92315 18.1917C1.77454 16.4727 1.16147 14.4516 1.16147 12.3842C1.16473 9.61284 2.26709 6.95591 4.22674 4.99626C6.18639 3.03661 8.84331 1.93425 11.6147 1.931V1.931ZM11.6147 0.769531C9.31751 0.769531 7.07193 1.45072 5.16191 2.72696C3.25189 4.00319 1.76321 5.81715 0.884119 7.93946C0.00503243 10.0618 -0.224977 12.3971 0.223178 14.6501C0.671332 16.9031 1.77752 18.9727 3.40186 20.597C5.0262 22.2213 7.09574 23.3275 9.34876 23.7757C11.6018 24.2238 13.9371 23.9938 16.0594 23.1147C18.1817 22.2357 19.9957 20.747 21.2719 18.837C22.5481 16.9269 23.2293 14.6814 23.2293 12.3842C23.2293 9.3038 22.0057 6.34956 19.8275 4.17139C17.6493 1.99322 14.6951 0.769531 11.6147 0.769531V0.769531Z" fill="#032D30"/>
</g>
</g>
<path d="M11.6147 1.16147C13.6821 1.16147 15.7031 1.77454 17.4222 2.92315C19.1412 4.07176 20.481 5.70433 21.2722 7.6144C22.0633 9.52447 22.2704 11.6263 21.867 13.654C21.4637 15.6817 20.4681 17.5443 19.0062 19.0062C17.5443 20.4681 15.6817 21.4637 13.654 21.867C11.6263 22.2703 9.52448 22.0633 7.6144 21.2722C5.70433 20.481 4.07177 19.1412 2.92315 17.4222C1.77454 15.7031 1.16147 13.6821 1.16147 11.6147C1.16473 8.8433 2.26709 6.18638 4.22674 4.22673C6.18639 2.26708 8.84331 1.16472 11.6147 1.16147V1.16147ZM11.6147 0C9.31751 0 7.07193 0.681188 5.16191 1.95742C3.25189 3.23366 1.76321 5.04762 0.884119 7.16993C0.00503243 9.29223 -0.224977 11.6276 0.223178 13.8806C0.671332 16.1336 1.77752 18.2031 3.40186 19.8275C5.0262 21.4518 7.09574 22.558 9.34876 23.0062C11.6018 23.4543 13.9371 23.2243 16.0594 22.3452C18.1817 21.4661 19.9957 19.9774 21.2719 18.0674C22.5481 16.1574 23.2293 13.9118 23.2293 11.6147C23.2293 8.53426 22.0057 5.58003 19.8275 3.40186C17.6493 1.22368 14.6951 0 11.6147 0V0Z" fill="url(#paint1_linear)"/>
<g opacity="0.5">
<path opacity="0.5" d="M18.9812 11.752C18.9812 11.8626 18.988 11.9733 18.988 12.084C18.9854 13.5412 18.5514 14.965 17.7407 16.1758C16.93 17.3867 15.7789 18.3304 14.4326 18.8879C13.0863 19.4455 11.605 19.5919 10.1756 19.3088C8.74616 19.0256 7.43258 18.3256 6.40047 17.2969C6.30892 17.2054 6.21873 17.1097 6.12718 17.0127H5.48633C6.22357 17.929 7.15672 18.6685 8.21724 19.1769C9.27776 19.6853 10.4387 19.9496 11.6148 19.9505C12.6476 19.9509 13.6703 19.7477 14.6245 19.3527C15.5788 18.9576 16.4458 18.3784 17.1761 17.6481C17.9064 16.9178 18.4856 16.0507 18.8807 15.0965C19.2758 14.1423 19.4789 13.1195 19.4786 12.0867C19.4786 11.976 19.4786 11.8654 19.4717 11.7547L18.9812 11.752Z" fill="#062344"/>
<path opacity="0.5" d="M4.23609 12.0798C4.23519 10.623 4.66551 9.1986 5.47281 7.98601C6.28012 6.77343 7.4283 5.82694 8.77264 5.26582C10.117 4.7047 11.5973 4.55407 13.0271 4.8329C14.457 5.11173 15.7722 5.80755 16.8073 6.83267H17.4905C16.4296 5.64 15.0309 4.79843 13.4802 4.41978C11.9296 4.04112 10.3004 4.14333 8.80923 4.71281C7.31806 5.28229 6.0355 6.29207 5.13199 7.60797C4.22848 8.92386 3.74682 10.4836 3.751 12.0798V12.1003H4.23609V12.0798Z" fill="#062344"/>
<path opacity="0.5" d="M16.2608 9.35104L14.2344 12.4938C14.203 12.466 14.1734 12.4364 14.1455 12.405L10.34 8.73478C9.82489 8.2251 8.91348 8.31255 8.48032 9.09825L4.33594 15.3688H4.34277C4.47941 15.4303 6.81328 16.4619 7.90779 14.7949L9.90551 11.6453C9.93772 11.6775 9.96784 11.7117 9.9957 11.7478L13.6468 15.2759C13.682 15.322 13.7239 15.3625 13.7711 15.3961L13.7944 15.4194C13.9562 15.5684 14.1584 15.6665 14.3757 15.7012C14.593 15.736 14.8157 15.7059 15.016 15.6148C15.2897 15.4865 15.519 15.2795 15.6746 15.0204L15.9479 14.5995L17.8882 11.6234L19.8285 8.77714C19.8285 8.77714 17.3826 7.62933 16.2608 9.35104Z" fill="#062344"/>
</g>
<path d="M18.9812 11.2832C18.9812 11.3939 18.988 11.5046 18.988 11.6152C18.9854 13.0724 18.5514 14.4962 17.7407 15.7071C16.93 16.9179 15.7789 17.8616 14.4326 18.4192C13.0863 18.9767 11.605 19.1232 10.1756 18.84C8.74616 18.5569 7.43258 17.8569 6.40047 16.8282C6.30892 16.7366 6.21873 16.641 6.12718 16.544H5.48633C6.22384 17.4598 7.15711 18.1988 8.21761 18.7067C9.27812 19.2146 10.4389 19.4785 11.6148 19.4791C12.6476 19.4794 13.6703 19.2763 14.6245 18.8812C15.5788 18.4861 16.4458 17.9069 17.1761 17.1766C17.9064 16.4463 18.4856 15.5793 18.8807 14.625C19.2758 13.6708 19.4789 12.648 19.4786 11.6152C19.4786 11.5046 19.4786 11.3939 19.4717 11.2832H18.9812Z" fill="white"/>
<path d="M4.23607 11.6133C4.23625 10.1571 4.66735 8.7334 5.47508 7.52165C6.2828 6.3099 7.43103 5.36426 8.77515 4.80382C10.1193 4.24338 11.5992 4.09321 13.0285 4.37221C14.4578 4.65122 15.7726 5.34692 16.8072 6.37171H17.4905C16.4299 5.17941 15.0317 4.33797 13.4815 3.95916C11.9314 3.58035 10.3027 3.6821 8.81178 4.2509C7.32085 4.81969 6.03824 5.82861 5.13431 7.14365C4.23038 8.45868 3.74792 10.0176 3.75099 11.6133V11.6338H4.23607V11.6133Z" fill="white"/>
<path d="M16.2608 8.88214L14.2344 12.0249C14.203 11.9971 14.1734 11.9675 14.1455 11.9361L10.34 8.26998C9.82489 7.7603 8.91348 7.84775 8.48032 8.63345L4.33594 14.904H4.34277C4.47941 14.9655 6.81328 15.9971 7.90779 14.3301L9.90551 11.1873C9.93772 11.2195 9.96784 11.2537 9.9957 11.2898L13.6468 14.8179C13.682 14.864 13.7239 14.9046 13.7711 14.9382L13.7944 14.9614C13.9562 15.1104 14.1584 15.2085 14.3757 15.2432C14.593 15.278 14.8157 15.2479 15.016 15.1568C15.2897 15.0285 15.519 14.8216 15.6746 14.5624L15.9479 14.1415L17.8882 11.1654L19.8285 8.31917C19.8285 8.31917 17.3826 7.16453 16.2608 8.88214Z" fill="white"/>
<defs>
<linearGradient id="paint0_linear" x1="18.6544" y1="1.92679" x2="4.58807" y2="21.2841" gradientUnits="userSpaceOnUse">
<stop stop-color="#1FD8E6"/>
<stop offset="1" stop-color="#1F9BE6"/>
</linearGradient>
<linearGradient id="paint1_linear" x1="18.4432" y1="2.21812" x2="4.78691" y2="21.0112" gradientUnits="userSpaceOnUse">
<stop stop-color="#1F9BE6"/>
<stop offset="1" stop-color="#1FD8E6"/>
</linearGradient>
</defs>
</svg>
