<svg id="Layer_1" data-name="Layer 1" xmlns="http://www.w3.org/2000/svg" viewBox="0 0 256 256"><defs><style>.cls-1{fill:#f5ac37;}.cls-2{fill:#fefefd;}</style></defs><g id="Layer_1-2" data-name="Layer_1"><path class="cls-1" d="M128,0A128,128,0,1,1,0,128,128,128,0,0,1,128,0Z"/><path class="cls-2" d="M132.72,137h48.64c1,0,1.52,0,1.6-1.36a94.77,94.77,0,0,0,0-14.88c0-1-.48-1.36-1.52-1.36H84.64c-1.2,0-1.52.4-1.52,1.52V135.2c0,1.84,0,1.84,1.92,1.84Zm44.8-34.24a1.55,1.55,0,0,0,0-1.12,31.45,31.45,0,0,0-2.89-5,40.84,40.84,0,0,0-5.92-7.44A19.61,19.61,0,0,0,165,85.6a57.53,57.53,0,0,0-24-12.16A59.81,59.81,0,0,0,127.43,72h-43c-1.2,0-1.36.48-1.36,1.52v28.4c0,1.2,0,1.52,1.52,1.52H177s.8-.16,1-.64Zm0,50.88a18.55,18.55,0,0,0-4.08,0H84.72c-1.2,0-1.6,0-1.6,1.6V183c0,1.28,0,1.6,1.6,1.6h41a20.35,20.35,0,0,0,5.83-.39,61,61,0,0,0,17.37-3.85,31.58,31.58,0,0,0,5.84-2.71h.55a51.92,51.92,0,0,0,22.32-22.47s.56-1.21-.07-1.53ZM67,199V154.8c0-1,0-1.2-1.28-1.2H48.4c-1,0-1.36,0-1.36-1.28v-15.2H65.6c1,0,1.44,0,1.44-1.36v-15c0-1,0-1.2-1.28-1.2H48.4c-1,0-1.36,0-1.36-1.28V104.17c0-.88,0-1.12,1.28-1.12h17.2c1.2,0,1.52,0,1.52-1.52V58.41c0-1.28,0-1.6,1.6-1.6h60a91,91,0,0,1,13,1.44,78.18,78.18,0,0,1,25,9.28,70.53,70.53,0,0,1,14.08,10.88,78.19,78.19,0,0,1,8.56,10.64,65.05,65.05,0,0,1,6.25,12.24,2.08,2.08,0,0,0,2.39,1.68h14.32c1.83,0,1.83,0,1.91,1.77v13.12c0,1.28-.47,1.6-1.76,1.6h-11c-1.12,0-1.44,0-1.36,1.44a81.24,81.24,0,0,1,0,14.63c0,1.36,0,1.52,1.53,1.52h12.63c.56.72,0,1.44,0,2.17a16.25,16.25,0,0,1,0,2.79v9.69c0,1.36-.4,1.76-1.6,1.76H197.43A2,2,0,0,0,195.1,155a64,64,0,0,1-16.8,24.48,96.13,96.13,0,0,1-8.56,6.88c-3.2,1.84-6.32,3.76-9.6,5.28a86.82,86.82,0,0,1-18.88,6,99.51,99.51,0,0,1-18.72,1.52H67v-.08Z"/></g></svg>