<svg id="Layer_1" data-name="Layer 1" xmlns="http://www.w3.org/2000/svg" viewBox="0 0 256 256"><defs><style>.cls-1{fill:#2775ca;}.cls-2{fill:#fff;}</style></defs><path class="cls-1" d="M128,256A128,128,0,1,0,0,128,127.7,127.7,0,0,0,128,256Z"/><path class="cls-2" d="M163.2,148.27c0-18.67-11.2-25.07-33.6-27.74-16-2.13-19.2-6.4-19.2-13.86s5.33-12.27,16-12.27c9.6,0,14.93,3.2,17.6,11.2a4,4,0,0,0,3.73,2.67h8.54a3.65,3.65,0,0,0,3.73-3.74V104a26.65,26.65,0,0,0-24-21.87V69.33c0-2.13-1.6-3.73-4.27-4.26h-8c-2.13,0-3.73,1.6-4.26,4.26V81.6c-16,2.13-26.14,12.8-26.14,26.13,0,17.6,10.67,24.54,33.07,27.2,14.93,2.67,19.73,5.87,19.73,14.4s-7.46,14.4-17.6,14.4c-13.86,0-18.66-5.86-20.26-13.86a3.9,3.9,0,0,0-3.74-3.2H95.47a3.65,3.65,0,0,0-3.74,3.73v.53c2.14,13.34,10.67,22.94,28.27,25.6v12.8c0,2.14,1.6,3.74,4.27,4.27h8c2.13,0,3.73-1.6,4.26-4.27v-12.8c16-2.66,26.67-13.86,26.67-28.26Z"/><path class="cls-2" d="M100.8,204.27c-41.6-14.94-62.93-61.34-47.47-102.4A78.9,78.9,0,0,1,100.8,54.4a5.36,5.36,0,0,0,3.2-5.33V41.6a4.07,4.07,0,0,0-3.2-4.27,3.17,3.17,0,0,0-2.13.54,96,96,0,0,0,0,182.93,3.24,3.24,0,0,0,4.8-2.13c.53-.54.53-1.07.53-2.14v-7.46C104,207.47,102.4,205.33,100.8,204.27Zm56.53-166.4a3.24,3.24,0,0,0-4.8,2.13c-.53.53-.53,1.07-.53,2.13V49.6a7.06,7.06,0,0,0,3.2,5.33c41.6,14.94,62.93,61.34,47.47,102.4A78.9,78.9,0,0,1,155.2,204.8a5.36,5.36,0,0,0-3.2,5.33v7.47a4.07,4.07,0,0,0,3.2,4.27,3.17,3.17,0,0,0,2.13-.54,96.38,96.38,0,0,0,0-183.46Z"/></svg>