<svg id="Layer_1" data-name="Layer 1" xmlns="http://www.w3.org/2000/svg" viewBox="0 0 256 256"><defs><style>.cls-1{fill:#f3ba2f;}.cls-2{fill:#fff;}</style></defs><circle class="cls-1" cx="128" cy="128" r="128"/><path class="cls-2" d="M93,113.64l35-35,35,35,20.34-20.34L128,38,72.7,93.3,93,113.64M38,128l20.34-20.34L78.68,128,58.34,148.34Zm55,14.36,35,35,35-35,20.35,20.32v0L128,218,72.7,162.7l0,0L93,142.36M177.32,128l20.34-20.34L218,128l-20.34,20.34Z"/><path class="cls-2" d="M148.63,128h0L128,107.35,112.75,122.6h0L111,124.36,107.38,128l0,0,0,0L128,148.65,148.64,128h0"/></svg>