<svg id="Layer_1" data-name="Layer 1" xmlns="http://www.w3.org/2000/svg" viewBox="0 0 256 256"><defs><style>.cls-1{fill:#272236;}.cls-2{fill:#f9f9f6;}</style></defs><rect class="cls-1" width="256" height="256"/><g id="Layer_2" data-name="Layer 2"><g id="Layer_1-2" data-name="Layer 1-2"><g id="Page-1"><g id="wbtc_colour" data-name="wbtc colour"><path id="Shape" class="cls-2" d="M208.74,53.73l-7,7a99.51,99.51,0,0,1,0,134.31l7,7a109.56,109.56,0,0,0,0-148.53Z"/><path id="Shape-2" class="cls-2" d="M60.92,54.33a99.52,99.52,0,0,1,134.3,0l7-7a109.55,109.55,0,0,0-148.52,0Z"/><path id="Shape-3" class="cls-2" d="M54.33,195.13a99.51,99.51,0,0,1,0-134.23l-7-7a109.55,109.55,0,0,0,0,148.52Z"/><path id="Shape-4" class="cls-2" d="M195.13,201.62a99.52,99.52,0,0,1-134.3,0l-7,7a109.55,109.55,0,0,0,148.52,0Z"/><path id="Shape-5" class="cls-2" d="M172.38,104.55C171,89.88,158.32,85,142.32,83.46V63.26H129.94V83.08h-9.88V63.26H107.78V83.6H82.69V96.84s9.13-.17,9,0a6.38,6.38,0,0,1,7,5.43v55.67A4.39,4.39,0,0,1,94,162c.16.14-9,0-9,0l-2.34,14.79h24.86v20.66h12.37V177.13h9.88V197.4h12.4V177c20.9-1.27,35.47-6.42,37.3-26,1.48-15.75-5.93-22.78-17.76-25.61C168.93,121.84,173.38,115.28,172.38,104.55Zm-17.34,44c0,15.37-26.34,13.61-34.73,13.61V134.89C128.7,134.91,155,132.5,155,148.55Zm-5.74-38.43c0,14.06-22,12.35-29,12.35V97.68C127.32,97.68,149.3,95.48,149.3,110.12Z"/><path id="Shape-6" class="cls-2" d="M128,256A128,128,0,1,1,256,128,128,128,0,0,1,128,256Zm0-246a118,118,0,1,0,.14,0Z"/></g></g></g></g></svg>