<svg id="Layer_1" data-name="Layer 1" xmlns="http://www.w3.org/2000/svg" viewBox="0 0 256 256"><defs><style>.cls-1{fill:#f2f4f7;}.cls-2{fill:#343434;}.cls-3{fill:#8c8c8c;}.cls-4{fill:#3c3c3b;}.cls-5{fill:#141414;}.cls-6{fill:#393939;}</style></defs><circle class="cls-1" cx="128" cy="128" r="128"/><polygon class="cls-2" points="129.98 37 128.76 41.17 128.76 162.11 129.98 163.33 186.12 130.15 129.98 37"/><polygon class="cls-3" points="129.98 37 73.84 130.15 129.98 163.33 129.98 104.63 129.98 37"/><polygon class="cls-4" points="129.98 173.96 129.29 174.81 129.29 217.89 129.98 219.91 186.16 140.8 129.98 173.96"/><polygon class="cls-3" points="129.98 219.91 129.98 173.96 73.84 140.79 129.98 219.91"/><polygon class="cls-5" points="129.98 163.33 186.12 130.15 129.98 104.63 129.98 163.33"/><polygon class="cls-6" points="73.84 130.15 129.98 163.33 129.98 104.63 73.84 130.15"/></svg>