<svg id="Layer_1" data-name="Layer 1" xmlns="http://www.w3.org/2000/svg" viewBox="0 0 256 256"><defs><style>.cls-1{fill:#53ae94;}.cls-2{fill:#fff;}</style></defs><path class="cls-1" d="M128,0A128,128,0,1,1,0,128,128,128,0,0,1,128,0"/><path class="cls-2" d="M143.8,111v-19h43.54v-29H68.77v29h43.55v19c-35.39,1.63-62,8.63-62,17s26.62,15.41,62,17v61h31.49V145c35.33-1.63,61.88-8.64,61.88-17s-26.55-15.39-61.88-17m0,28.88h0c-.89.05-5.45.33-15.62.33-8.12,0-13.84-.23-15.85-.34v0c-31.27-1.39-54.61-6.83-54.61-13.35s23.34-11.95,54.61-13.34v21.26c2,.14,7.9.49,16,.49,9.71,0,14.59-.41,15.48-.49V113.15c31.21,1.39,54.5,6.84,54.5,13.33s-23.3,12-54.5,13.34"/></svg>