<svg id="Layer_1" data-name="Layer 1" xmlns="http://www.w3.org/2000/svg" viewBox="0 0 256 256"><defs><style>.cls-1{fill:#f2b706;}.cls-2{fill:#54cac6;}.cls-3{fill:none;}</style></defs><path class="cls-1" d="M220,97.5a94.44,94.44,0,0,1-1.7,17.92h0C214.4,118.73,199.53,130,178.5,130c-18.48,0-30.22-7.93-42.65-16.32-13-8.8-26.53-17.9-47.78-18.18-28.34-.36-47,11.24-55.68,18.19A94.5,94.5,0,1,1,220,97.5Z"/><path class="cls-2" d="M178.5,154c-21.84,0-35.55-9.25-48.81-18.2-12.24-8.26-23.8-16.06-41.76-16.3H86.74c-33.82,0-51.46,19.36-51.63,19.56a5.5,5.5,0,0,1-8.22-7.32c.87-1,21.65-23.73,61.18-23.23,21.25.28,34.73,9.38,47.78,18.18C148.28,135.07,160,143,178.5,143c24.5,0,40.64-15.3,40.8-15.46a5.5,5.5,0,1,1,7.64,7.92A74.34,74.34,0,0,1,178.5,154Z"/><rect class="cls-2" x="39" y="144" width="12" height="53" rx="6"/><rect class="cls-2" x="108" y="141" width="12" height="53" rx="6"/><rect class="cls-2" x="154" y="162" width="12" height="70" rx="6"/><rect class="cls-2" x="177" y="165" width="12" height="60" rx="6"/><rect class="cls-2" x="201" y="161" width="12" height="31" rx="6"/><rect class="cls-2" x="131" y="154" width="12" height="24" rx="6"/><rect class="cls-2" x="62" y="131" width="12" height="69" rx="6"/><rect class="cls-2" x="85" y="130" width="12" height="124" rx="6"/><rect class="cls-3" width="256" height="256"/></svg>